<mxfile host="app.diagrams.net" agent="Mozilla/5.0 (Windows NT 10.0; Win64; x64) AppleWebKit/537.36 (KHTML, like Gecko) Chrome/136.0.0.0 Safari/537.36" version="27.0.6">
  <diagram name="Page-1" id="PhbS8a8MyQcR4yVPh5LD">
    <mxGraphModel dx="696" dy="809" grid="1" gridSize="10" guides="1" tooltips="1" connect="1" arrows="1" fold="1" page="1" pageScale="1" pageWidth="850" pageHeight="1100" math="0" shadow="0">
      <root>
        <mxCell id="0" />
        <mxCell id="1" parent="0" />
        <mxCell id="yDa9StTVRL9rdW1MWb57-1" value="" style="verticalLabelPosition=bottom;html=1;verticalAlign=top;align=center;strokeColor=none;fillColor=#00BEF2;shape=mxgraph.azure.user;rounded=1;" vertex="1" parent="1">
          <mxGeometry x="30" y="20" width="47.5" height="50" as="geometry" />
        </mxCell>
        <mxCell id="yDa9StTVRL9rdW1MWb57-2" value="adpeba" style="rounded=1;whiteSpace=wrap;html=1;" vertex="1" parent="1">
          <mxGeometry x="130" y="40" width="120" height="30" as="geometry" />
        </mxCell>
        <mxCell id="yDa9StTVRL9rdW1MWb57-3" value="" style="endArrow=classic;html=1;rounded=1;exitX=1;exitY=0.5;exitDx=0;exitDy=0;" edge="1" parent="1" source="yDa9StTVRL9rdW1MWb57-2">
          <mxGeometry width="50" height="50" relative="1" as="geometry">
            <mxPoint x="270" y="360" as="sourcePoint" />
            <mxPoint x="320" y="55" as="targetPoint" />
          </mxGeometry>
        </mxCell>
        <mxCell id="yDa9StTVRL9rdW1MWb57-4" value="registrasi" style="rounded=1;whiteSpace=wrap;html=1;" vertex="1" parent="1">
          <mxGeometry x="320" y="40" width="120" height="30" as="geometry" />
        </mxCell>
        <mxCell id="yDa9StTVRL9rdW1MWb57-5" value="" style="endArrow=classic;html=1;rounded=1;exitX=0.5;exitY=1;exitDx=0;exitDy=0;" edge="1" parent="1" source="yDa9StTVRL9rdW1MWb57-2">
          <mxGeometry width="50" height="50" relative="1" as="geometry">
            <mxPoint x="270" y="260" as="sourcePoint" />
            <mxPoint x="190" y="130" as="targetPoint" />
          </mxGeometry>
        </mxCell>
        <mxCell id="yDa9StTVRL9rdW1MWb57-6" value="guest" style="rounded=1;whiteSpace=wrap;html=1;" vertex="1" parent="1">
          <mxGeometry x="130" y="130" width="120" height="30" as="geometry" />
        </mxCell>
        <mxCell id="yDa9StTVRL9rdW1MWb57-7" value="&lt;font style=&quot;font-size: 19px;&quot;&gt;artikel&lt;/font&gt;&lt;div&gt;&lt;font style=&quot;font-size: 19px;&quot;&gt;about&lt;/font&gt;&lt;/div&gt;&lt;div&gt;&lt;font style=&quot;font-size: 19px;&quot;&gt;news&lt;/font&gt;&lt;/div&gt;&lt;div&gt;&lt;br&gt;&lt;/div&gt;" style="whiteSpace=wrap;html=1;aspect=fixed;rounded=1;" vertex="1" parent="1">
          <mxGeometry x="130" y="160" width="120" height="120" as="geometry" />
        </mxCell>
        <mxCell id="yDa9StTVRL9rdW1MWb57-10" value="" style="endArrow=classic;html=1;rounded=1;" edge="1" parent="1" source="yDa9StTVRL9rdW1MWb57-4" target="yDa9StTVRL9rdW1MWb57-9">
          <mxGeometry width="50" height="50" relative="1" as="geometry">
            <mxPoint x="380" y="70" as="sourcePoint" />
            <mxPoint x="380" y="140.71067811865476" as="targetPoint" />
          </mxGeometry>
        </mxCell>
        <mxCell id="yDa9StTVRL9rdW1MWb57-9" value="login" style="rounded=1;whiteSpace=wrap;html=1;" vertex="1" parent="1">
          <mxGeometry x="490" y="100" width="120" height="30" as="geometry" />
        </mxCell>
        <mxCell id="yDa9StTVRL9rdW1MWb57-11" value="" style="endArrow=classic;html=1;rounded=1;entryX=0.5;entryY=0;entryDx=0;entryDy=0;exitX=0.5;exitY=1;exitDx=0;exitDy=0;fillColor=#0050ef;strokeColor=#001DBC;" edge="1" parent="1" source="yDa9StTVRL9rdW1MWb57-9" target="yDa9StTVRL9rdW1MWb57-12">
          <mxGeometry width="50" height="50" relative="1" as="geometry">
            <mxPoint x="370" y="210" as="sourcePoint" />
            <mxPoint x="380" y="290" as="targetPoint" />
          </mxGeometry>
        </mxCell>
        <mxCell id="yDa9StTVRL9rdW1MWb57-12" value="super admin" style="rounded=1;whiteSpace=wrap;html=1;fillColor=#0050ef;fontColor=#ffffff;strokeColor=#001DBC;" vertex="1" parent="1">
          <mxGeometry x="280" y="220" width="120" height="30" as="geometry" />
        </mxCell>
        <mxCell id="yDa9StTVRL9rdW1MWb57-13" value="admin" style="rounded=1;whiteSpace=wrap;html=1;fillColor=#008a00;fontColor=#ffffff;strokeColor=#005700;" vertex="1" parent="1">
          <mxGeometry x="400" y="220" width="120" height="30" as="geometry" />
        </mxCell>
        <mxCell id="yDa9StTVRL9rdW1MWb57-18" value="" style="endArrow=classic;html=1;rounded=1;entryX=0.5;entryY=0;entryDx=0;entryDy=0;exitX=0.5;exitY=1;exitDx=0;exitDy=0;fillColor=#60a917;strokeColor=#2D7600;" edge="1" parent="1" source="yDa9StTVRL9rdW1MWb57-9" target="yDa9StTVRL9rdW1MWb57-13">
          <mxGeometry width="50" height="50" relative="1" as="geometry">
            <mxPoint x="370" y="210" as="sourcePoint" />
            <mxPoint x="380" y="290" as="targetPoint" />
          </mxGeometry>
        </mxCell>
        <mxCell id="yDa9StTVRL9rdW1MWb57-19" value="anggota" style="rounded=1;whiteSpace=wrap;html=1;fillColor=#e51400;fontColor=#ffffff;strokeColor=#B20000;" vertex="1" parent="1">
          <mxGeometry x="520" y="220" width="120" height="30" as="geometry" />
        </mxCell>
        <mxCell id="yDa9StTVRL9rdW1MWb57-22" value="" style="endArrow=classic;html=1;rounded=1;entryX=0.5;entryY=0;entryDx=0;entryDy=0;exitX=0.5;exitY=1;exitDx=0;exitDy=0;fillColor=#e51400;strokeColor=#B20000;" edge="1" parent="1" source="yDa9StTVRL9rdW1MWb57-9" target="yDa9StTVRL9rdW1MWb57-19">
          <mxGeometry width="50" height="50" relative="1" as="geometry">
            <mxPoint x="370" y="210" as="sourcePoint" />
            <mxPoint x="380" y="290" as="targetPoint" />
          </mxGeometry>
        </mxCell>
        <mxCell id="yDa9StTVRL9rdW1MWb57-23" value="menambah dan menghapus admin" style="whiteSpace=wrap;html=1;aspect=fixed;rounded=1;" vertex="1" parent="1">
          <mxGeometry x="300" y="380" width="80" height="80" as="geometry" />
        </mxCell>
        <mxCell id="yDa9StTVRL9rdW1MWb57-24" value="dashboard bidgar pc&lt;div&gt;dakwah&lt;/div&gt;&lt;div&gt;pendidikan&lt;/div&gt;&lt;div&gt;kaderisasi&lt;/div&gt;&lt;div&gt;jamiyyah&lt;/div&gt;&lt;div&gt;sosial&lt;/div&gt;&lt;div&gt;ekonomi&lt;/div&gt;&lt;div&gt;halo&lt;/div&gt;&lt;div&gt;kominfo&lt;/div&gt;&lt;div&gt;osb&lt;br&gt;&lt;div&gt;&lt;br&gt;&lt;/div&gt;&lt;/div&gt;" style="rounded=1;whiteSpace=wrap;html=1;" vertex="1" parent="1">
          <mxGeometry x="380" y="380" width="120" height="180" as="geometry" />
        </mxCell>
        <mxCell id="yDa9StTVRL9rdW1MWb57-27" value="buat artikel" style="rounded=1;whiteSpace=wrap;html=1;" vertex="1" parent="1">
          <mxGeometry x="500" y="380" width="120" height="40" as="geometry" />
        </mxCell>
        <mxCell id="yDa9StTVRL9rdW1MWb57-28" value="simpatisan, remaja,&amp;nbsp; dll" style="rounded=1;whiteSpace=wrap;html=1;fillColor=#ffcd28;gradientColor=#ffa500;strokeColor=#d79b00;" vertex="1" parent="1">
          <mxGeometry x="640" y="220" width="120" height="30" as="geometry" />
        </mxCell>
        <mxCell id="yDa9StTVRL9rdW1MWb57-31" value="" style="endArrow=classic;html=1;rounded=1;entryX=0.5;entryY=0;entryDx=0;entryDy=0;exitX=0.5;exitY=1;exitDx=0;exitDy=0;fillColor=#ffcd28;gradientColor=#ffa500;strokeColor=#d79b00;" edge="1" parent="1" source="yDa9StTVRL9rdW1MWb57-9" target="yDa9StTVRL9rdW1MWb57-28">
          <mxGeometry width="50" height="50" relative="1" as="geometry">
            <mxPoint x="370" y="210" as="sourcePoint" />
            <mxPoint x="380" y="290" as="targetPoint" />
          </mxGeometry>
        </mxCell>
        <mxCell id="yDa9StTVRL9rdW1MWb57-38" value="buat postingan status&lt;div&gt;chat&lt;/div&gt;&lt;div&gt;like&lt;/div&gt;&lt;div&gt;komen&lt;/div&gt;&lt;div&gt;komen artikel&lt;/div&gt;&lt;div&gt;profil&lt;/div&gt;" style="rounded=1;whiteSpace=wrap;html=1;" vertex="1" parent="1">
          <mxGeometry x="620" y="380" width="120" height="120" as="geometry" />
        </mxCell>
        <mxCell id="yDa9StTVRL9rdW1MWb57-40" value="" style="endArrow=classic;html=1;rounded=1;exitX=0.5;exitY=1;exitDx=0;exitDy=0;entryX=0.5;entryY=0;entryDx=0;entryDy=0;fillColor=#0050ef;strokeColor=#001DBC;" edge="1" parent="1" source="yDa9StTVRL9rdW1MWb57-12" target="yDa9StTVRL9rdW1MWb57-23">
          <mxGeometry width="50" height="50" relative="1" as="geometry">
            <mxPoint x="410" y="410" as="sourcePoint" />
            <mxPoint x="460" y="360" as="targetPoint" />
          </mxGeometry>
        </mxCell>
        <mxCell id="yDa9StTVRL9rdW1MWb57-41" value="" style="endArrow=classic;html=1;rounded=1;exitX=0.5;exitY=1;exitDx=0;exitDy=0;entryX=0.5;entryY=0;entryDx=0;entryDy=0;fillColor=#0050ef;strokeColor=#001DBC;" edge="1" parent="1" source="yDa9StTVRL9rdW1MWb57-12" target="yDa9StTVRL9rdW1MWb57-24">
          <mxGeometry width="50" height="50" relative="1" as="geometry">
            <mxPoint x="410" y="410" as="sourcePoint" />
            <mxPoint x="460" y="360" as="targetPoint" />
          </mxGeometry>
        </mxCell>
        <mxCell id="yDa9StTVRL9rdW1MWb57-42" value="" style="endArrow=classic;html=1;rounded=1;exitX=0.5;exitY=1;exitDx=0;exitDy=0;entryX=0.5;entryY=0;entryDx=0;entryDy=0;fillColor=#0050ef;strokeColor=#001DBC;" edge="1" parent="1" source="yDa9StTVRL9rdW1MWb57-12" target="yDa9StTVRL9rdW1MWb57-27">
          <mxGeometry width="50" height="50" relative="1" as="geometry">
            <mxPoint x="410" y="410" as="sourcePoint" />
            <mxPoint x="460" y="360" as="targetPoint" />
          </mxGeometry>
        </mxCell>
        <mxCell id="yDa9StTVRL9rdW1MWb57-43" value="" style="endArrow=classic;html=1;rounded=1;exitX=0.5;exitY=1;exitDx=0;exitDy=0;entryX=0.5;entryY=0;entryDx=0;entryDy=0;fillColor=#0050ef;strokeColor=#001DBC;" edge="1" parent="1" source="yDa9StTVRL9rdW1MWb57-12" target="yDa9StTVRL9rdW1MWb57-38">
          <mxGeometry width="50" height="50" relative="1" as="geometry">
            <mxPoint x="410" y="410" as="sourcePoint" />
            <mxPoint x="460" y="360" as="targetPoint" />
          </mxGeometry>
        </mxCell>
        <mxCell id="yDa9StTVRL9rdW1MWb57-44" value="" style="endArrow=classic;html=1;rounded=1;exitX=0.5;exitY=1;exitDx=0;exitDy=0;entryX=0.5;entryY=0;entryDx=0;entryDy=0;fillColor=#cdeb8b;strokeColor=#36393d;strokeWidth=2;shadow=0;flowAnimation=1;endFillColor=light-dark(#000000,#3CED24);" edge="1" parent="1" source="yDa9StTVRL9rdW1MWb57-13" target="yDa9StTVRL9rdW1MWb57-24">
          <mxGeometry width="50" height="50" relative="1" as="geometry">
            <mxPoint x="410" y="410" as="sourcePoint" />
            <mxPoint x="460" y="360" as="targetPoint" />
          </mxGeometry>
        </mxCell>
        <mxCell id="yDa9StTVRL9rdW1MWb57-45" value="" style="endArrow=classic;html=1;rounded=1;exitX=0.5;exitY=1;exitDx=0;exitDy=0;entryX=0.5;entryY=0;entryDx=0;entryDy=0;fillColor=#cdeb8b;strokeColor=#36393d;strokeWidth=2;shadow=0;flowAnimation=1;endFillColor=light-dark(#000000,#3CED24);" edge="1" parent="1" source="yDa9StTVRL9rdW1MWb57-13" target="yDa9StTVRL9rdW1MWb57-27">
          <mxGeometry width="50" height="50" relative="1" as="geometry">
            <mxPoint x="410" y="410" as="sourcePoint" />
            <mxPoint x="460" y="360" as="targetPoint" />
          </mxGeometry>
        </mxCell>
        <mxCell id="yDa9StTVRL9rdW1MWb57-46" value="" style="endArrow=classic;html=1;rounded=1;exitX=0.5;exitY=1;exitDx=0;exitDy=0;entryX=0.5;entryY=0;entryDx=0;entryDy=0;fillColor=#cdeb8b;strokeColor=#36393d;strokeWidth=2;shadow=0;flowAnimation=1;endFillColor=light-dark(#000000,#3CED24);" edge="1" parent="1" source="yDa9StTVRL9rdW1MWb57-13" target="yDa9StTVRL9rdW1MWb57-38">
          <mxGeometry width="50" height="50" relative="1" as="geometry">
            <mxPoint x="410" y="410" as="sourcePoint" />
            <mxPoint x="460" y="360" as="targetPoint" />
          </mxGeometry>
        </mxCell>
        <mxCell id="yDa9StTVRL9rdW1MWb57-47" value="" style="endArrow=classic;html=1;rounded=0;exitX=0.5;exitY=1;exitDx=0;exitDy=0;entryX=0.5;entryY=0;entryDx=0;entryDy=0;" edge="1" parent="1" source="yDa9StTVRL9rdW1MWb57-19" target="yDa9StTVRL9rdW1MWb57-27">
          <mxGeometry width="50" height="50" relative="1" as="geometry">
            <mxPoint x="410" y="410" as="sourcePoint" />
            <mxPoint x="460" y="360" as="targetPoint" />
          </mxGeometry>
        </mxCell>
        <mxCell id="yDa9StTVRL9rdW1MWb57-48" value="" style="endArrow=classic;html=1;rounded=0;exitX=0.5;exitY=1;exitDx=0;exitDy=0;entryX=0.5;entryY=0;entryDx=0;entryDy=0;" edge="1" parent="1" source="yDa9StTVRL9rdW1MWb57-19" target="yDa9StTVRL9rdW1MWb57-38">
          <mxGeometry width="50" height="50" relative="1" as="geometry">
            <mxPoint x="410" y="410" as="sourcePoint" />
            <mxPoint x="460" y="360" as="targetPoint" />
          </mxGeometry>
        </mxCell>
        <mxCell id="yDa9StTVRL9rdW1MWb57-49" value="" style="endArrow=classic;html=1;rounded=0;exitX=0.5;exitY=1;exitDx=0;exitDy=0;entryX=0.5;entryY=0;entryDx=0;entryDy=0;" edge="1" parent="1" source="yDa9StTVRL9rdW1MWb57-28" target="yDa9StTVRL9rdW1MWb57-38">
          <mxGeometry width="50" height="50" relative="1" as="geometry">
            <mxPoint x="410" y="410" as="sourcePoint" />
            <mxPoint x="740" y="360" as="targetPoint" />
          </mxGeometry>
        </mxCell>
      </root>
    </mxGraphModel>
  </diagram>
</mxfile>
